<?xml version="1.0" encoding="UTF-8" standalone="no"?>
<!-- Created with Inkscape (http://www.inkscape.org/) -->

<svg
   xmlns:dc="http://purl.org/dc/elements/1.1/"
   xmlns:cc="http://creativecommons.org/ns#"
   xmlns:rdf="http://www.w3.org/1999/02/22-rdf-syntax-ns#"
   xmlns:svg="http://www.w3.org/2000/svg"
   xmlns="http://www.w3.org/2000/svg"
   xmlns:sodipodi="http://sodipodi.sourceforge.net/DTD/sodipodi-0.dtd"
   xmlns:inkscape="http://www.inkscape.org/namespaces/inkscape"
   id="svg2"
   version="1.1"
   inkscape:version="0.48.4 r9939"
   width="80"
   height="80"
   sodipodi:docname="logo2.svg">
  <sodipodi:namedview
     pagecolor="#ffffff"
     bordercolor="#666666"
     borderopacity="1"
     objecttolerance="10"
     gridtolerance="10"
     guidetolerance="10"
     inkscape:pageopacity="0"
     inkscape:pageshadow="2"
     inkscape:window-width="1366"
     inkscape:window-height="744"
     id="namedview4"
     showgrid="false"
     inkscape:zoom="4.2048996"
     inkscape:cx="56.339163"
     inkscape:cy="25.074471"
     inkscape:window-x="0"
     inkscape:window-y="24"
     inkscape:window-maximized="1"
     inkscape:current-layer="svg2"
     inkscape:snap-global="false"
     fit-margin-top="0"
     fit-margin-left="0"
     fit-margin-right="0"
     fit-margin-bottom="0" />
  <metadata
     id="metadata8">
    <rdf:RDF>
      <cc:Work
         rdf:about="">
        <dc:format>image/svg+xml</dc:format>
        <dc:type
           rdf:resource="http://purl.org/dc/dcmitype/StillImage" />
        <dc:title></dc:title>
      </cc:Work>
    </rdf:RDF>
  </metadata>
  <defs
     id="defs6" />
  <path
     style="fill:#5e5e5e"
     d="m 40.517809,0.37499295 c -0.534235,0.007062 -1.063536,0.13391312 -1.41186,0.33761879 -0.677301,0.39610666 -1.258398,1.48482536 -1.258398,2.33263896 0,0.8698533 0.568722,1.8368328 1.319783,2.240561 0.766186,0.4118998 1.822994,0.4290779 2.70095,0.061385 C 43.674483,4.5907442 43.758262,1.567271 41.991055,0.6512265 41.616457,0.45708711 41.052044,0.36793119 40.517809,0.37499295 z m -5.002897,0.36831141 c -0.790052,0 -1.043549,0.0602656 -1.043549,0.27623354 0,0.1547301 0.153856,0.2762336 0.337619,0.2762336 0.279917,0 0.359865,0.295258 0.552467,1.7494792 0.286497,2.1648264 0.310806,2.2098684 -0.03069,2.2098684 -0.154397,0 -0.306927,0.1215035 -0.306927,0.2762335 0,0.2159189 0.253497,0.2762336 1.043549,0.2762336 0.789955,0 1.012857,-0.060266 1.012857,-0.2762336 0,-0.15473 -0.144329,-0.2762335 -0.337619,-0.2762335 -0.294256,0 -0.376758,-0.2277638 -0.552467,-1.4118604 -0.293569,-1.9778617 -0.283747,-2.7316429 0.06138,-2.7316429 0.154298,0 0.276234,-0.081009 0.276234,-0.18415574 0,-0.10318612 -0.446934,-0.1841557 -1.012857,-0.1841557 z m 9.361249,0.0613852 c -0.09149,0.0249175 -0.122771,0.0968708 -0.122771,0.21484831 0,0.1629312 0.141333,0.2762336 0.306926,0.2762336 0.217451,0 0.287529,0.1249803 0.214849,0.4296966 -0.05559,0.2320951 -0.215929,1.1133121 -0.337619,1.9643275 -0.18779,1.3122985 -0.2533,1.5653235 -0.552467,1.5653235 -0.193978,0 -0.368312,0.1215035 -0.368312,0.2762335 0,0.1547301 0.116878,0.2752514 0.245541,0.2762336 0.128565,0.00113 0.534887,0.058832 0.920779,0.1227705 0.571324,0.094671 0.70593,0.064921 0.70593,-0.1841557 0,-0.168225 -0.139664,-0.3069262 -0.306926,-0.3069262 -0.231889,0 -0.262729,-0.1285161 -0.184156,-0.5217745 0.05647,-0.2836685 0.142168,-1.0402293 0.214848,-1.6880939 l 0.153463,-1.1970121 0.859394,2.1791758 c 0.972145,2.4519031 1.308144,2.7238839 1.534631,1.1356268 0.400821,-2.8106285 0.564007,-3.4473063 0.8287,-3.3454952 0.177281,0.068368 0.276234,-0.042596 0.276234,-0.3069262 0,-0.3433055 -0.127976,-0.399004 -0.859393,-0.399004 -0.623674,0 -0.828701,0.098531 -0.828701,0.3069261 0,0.1547203 0.119873,0.2762336 0.276233,0.2762336 0.201344,0 0.257818,0.1313251 0.184156,0.4296966 -0.05746,0.2320952 -0.164021,0.956215 -0.245541,1.6267088 -0.10735,0.8796258 -0.20262,1.0993751 -0.306926,0.8287006 C 47.1675,3.9402867 46.028484,1.0122208 46.011787,0.98884529 46.001868,0.97511464 45.701669,0.90717838 45.367242,0.83538221 45.125041,0.78337664 44.967649,0.7797721 44.876161,0.80468959 z m -4.419737,0.12277047 c 0.349416,-0.008414 0.72464,0.0791059 1.104934,0.27623354 1.098059,0.5691639 1.310845,2.4008404 0.399004,3.3148027 -1.22358,1.2265261 -3.376188,0.383584 -3.376188,-1.3197826 0,-1.3576989 0.823999,-2.24601004 1.87225,-2.27125364 z M 32.691192,1.2343862 c -0.143789,0.055148 -0.24014,0.185187 -0.184156,0.2762336 0.05696,0.092422 -0.249421,0.1241455 -0.70593,0.061385 -1.593463,-0.2189243 -2.946492,0.962275 -2.946492,2.5781799 0.0012,0.7506677 0.727391,1.9864458 1.350476,2.3326389 0.67013,0.372299 2.036467,0.3327865 2.731642,-0.092078 0.690265,-0.4218589 1.250246,-1.2185902 1.074242,-1.5039382 -0.203013,-0.3293097 -0.475416,-0.2308085 -0.70593,0.2762335 -0.487448,1.0724639 -2.01707,1.3542369 -2.946491,0.5217745 -1.101399,-0.9864754 -0.902707,-2.9098369 0.368311,-3.4375731 0.78691,-0.3267266 2.056405,0.038216 2.056405,0.5831597 0,0.3839769 0.27152,0.4905614 0.46039,0.1841557 0.0603,-0.097863 0.02401,-0.5506108 -0.09208,-1.0128563 -0.148602,-0.5912528 -0.27702,-0.8378348 -0.460389,-0.7673155 z m 19.766045,1.442553 c -0.265515,-0.036997 -0.399004,0.026312 -0.399004,0.1841557 0,0.157323 0.116878,0.3237212 0.245541,0.3683115 0.145949,0.050621 -0.088,0.4389486 -0.613852,1.0128563 -0.463189,0.505559 -1.052438,1.1792546 -1.319783,1.5039383 -0.267443,0.3246935 -0.64042,0.6082049 -0.828701,0.6445449 -0.588316,0.1135774 -0.400968,0.3733008 0.521775,0.7366228 0.734069,0.2890116 0.890086,0.3141648 0.890086,0.092078 0,-0.1478844 -0.130382,-0.3471949 -0.276234,-0.4296966 -0.221969,-0.1254616 -0.195598,-0.197248 0.09208,-0.5524672 l 0.337619,-0.4296966 0.890086,0.3376188 c 0.766579,0.3006992 0.903345,0.4498801 0.951471,0.9207785 0.0441,0.4348727 -0.01223,0.5649406 -0.276234,0.5524671 -0.573583,-0.027098 -0.45317,0.3513593 0.184156,0.5831598 0.332855,0.1210909 0.73073,0.206991 0.859393,0.2148483 0.279819,0.017041 0.294993,-0.2966135 0.03069,-0.4603893 -0.106565,-0.066257 -0.184156,-1.0240628 -0.184156,-2.240561 0,-2.0360059 0.01031,-2.1195094 0.368312,-2.0257128 C 54.551996,3.8527268 54.354385,3.3870142 53.684942,3.1066359 53.120148,2.8700965 52.722752,2.7139361 52.457237,2.6769392 z M 26.030894,3.3828694 c -0.109512,0 -0.604031,0.1523042 -1.104935,0.3683114 -0.593325,0.2558537 -0.860866,0.4804942 -0.798008,0.644545 0.05304,0.1384949 0.204438,0.2353264 0.337619,0.1841557 0.183861,-0.070745 0.264006,0.3678891 0.368312,1.9029423 0.09674,1.4260035 0.08535,2.038088 -0.06139,2.087098 -0.11452,0.038196 -0.214848,0.2377032 -0.214848,0.4296966 0,0.3356839 0.03408,0.3386992 0.920778,-0.030693 0.618567,-0.2576805 0.895488,-0.4711931 0.828701,-0.644545 -0.07356,-0.1923175 -0.195892,-0.2032686 -0.460389,-0.061385 -0.313212,0.1682545 -0.337619,0.1125068 -0.337619,-0.399004 0,-0.5083287 0.07735,-0.6183212 0.828701,-0.9514712 0.815294,-0.3614461 0.88601,-0.3713463 1.227704,-0.061385 0.430385,0.3903708 0.464122,0.5934233 0.09208,0.6752376 -0.168048,0.037037 -0.212147,0.1642178 -0.12277,0.3069261 0.195843,0.3134871 1.688094,-0.2867132 1.688094,-0.6752375 0,-0.1621454 -0.08358,-0.2157323 -0.245541,-0.1534631 -0.375678,0.1445156 -3.179903,-2.8658949 -2.915799,-3.130647 0.24672,-0.2480258 0.221331,-0.4910819 -0.03069,-0.4910819 z m 26.97881,0.1534631 0,1.2277047 c 0,0.679402 -0.03585,1.235562 -0.06139,1.2277047 -0.02573,-0.00765 -0.333199,-0.1647481 -0.70593,-0.3376188 l -0.70593,-0.3069262 0.736622,-0.9207785 0.736623,-0.8900859 z m -27.746126,0.6752376 0.767316,0.8593933 c 0.416633,0.4620884 0.767315,0.8841929 0.767315,0.9514711 0.0042,0.067278 -0.259046,0.2243753 -0.58316,0.3376188 -0.324016,0.1132828 -0.619008,0.2148483 -0.644545,0.2148483 -0.112065,0 -0.200361,-0.5503947 -0.245541,-1.4118604 l -0.06139,-0.9514711 z m 31.951015,0.399004 c -0.07017,-0.00157 -0.121469,0.029317 -0.153463,0.061385 -0.148896,0.1492299 -0.134606,0.2591144 0.09208,0.4296966 0.283649,0.213601 0.230269,0.3934646 -0.583159,1.841557 -0.733087,1.3048537 -0.954172,1.5711674 -1.28909,1.5346309 -0.841715,-0.091911 -0.3607,0.4490649 1.135627,1.2890899 0.848982,0.4766242 1.572444,0.8794782 1.596016,0.8900862 0.07779,0.03559 0.613852,-1.0903985 0.613852,-1.2890902 0,-0.3516244 -0.553449,-0.2003614 -0.675237,0.1841557 -0.116682,0.3686552 -0.134557,0.3841734 -0.859394,-0.030693 -0.40416,-0.2313094 -0.735935,-0.5047831 -0.736623,-0.5831597 -0.0028,-0.2744461 1.745404,-3.3148027 1.902943,-3.3148027 0.08751,0 0.1817,0.080999 0.245541,0.1841557 0.170307,0.2763514 0.491082,0.2425945 0.491082,-0.061385 0,-0.348759 -1.288986,-1.1246383 -1.780172,-1.1356269 z M 21.549771,5.4085822 c -0.113477,-0.046143 -0.322714,0.063035 -0.736622,0.3376188 -0.402393,0.2669324 -0.736623,0.5415651 -0.736623,0.6138523 0,0.2653807 0.249617,0.3901351 0.460389,0.2148483 0.152727,-0.1270723 0.512051,0.2094366 1.197012,1.1970121 0.925591,1.3346034 1.047134,1.7235992 0.399004,1.1356268 C 21.96999,8.7597249 21.11757,8.303775 20.229989,7.8946842 18.646152,7.1646419 18.60053,7.1745912 18.112198,7.4956802 17.689475,7.773603 17.666934,7.8564485 17.89735,8.0481473 c 0.198102,0.164807 0.304716,0.1535318 0.399004,0 0.07572,-0.1228098 0.588807,0.4774887 1.227705,1.442553 0.88434,1.3352027 1.020468,1.6860707 0.798008,1.8108647 -0.151057,0.08495 -0.213375,0.240777 -0.153463,0.337618 0.151056,0.24505 0.225603,0.215271 1.043549,-0.24554 0.566217,-0.319164 0.684813,-0.44771 0.521774,-0.644545 -0.151155,-0.182555 -0.283992,-0.208121 -0.460389,-0.06139 -0.182977,0.152226 -0.292145,0.11233 -0.460389,-0.214848 C 20.69028,10.23411 20.263874,9.5718565 19.861678,9.030311 19.459383,8.4887557 19.156975,8.0481473 19.18644,8.0481473 c 0.02917,0 0.952355,0.4786182 2.056405,1.043549 1.128703,0.5775712 2.1393,0.9833427 2.301947,0.9207787 0.178262,-0.068506 0.220004,-0.2067752 0.12277,-0.337619 C 23.580444,9.5579687 23.009365,8.7100372 22.409165,7.8026063 21.630898,6.6260036 21.375683,6.1048282 21.519079,5.9610493 21.634287,5.850163 21.694886,5.638163 21.641849,5.50066 c -0.01805,-0.047149 -0.05425,-0.076697 -0.09208,-0.092078 z m 41.895423,3.1306469 c -0.152592,0.04342 -0.165249,0.1796918 0.09208,0.3683114 0.271372,0.1988489 0.174334,0.4067141 -0.859393,1.7494795 -0.976468,1.268494 -1.243616,1.496228 -1.596017,1.41186 -1.124086,-0.269162 0.190344,1.033865 1.841558,1.841557 0.824231,0.4031 0.863174,0.400644 1.810864,-0.03069 1.030781,-0.469111 1.830557,-1.775291 1.657401,-2.700951 C 66.274906,10.555297 65.296966,9.4558433 64.181817,8.7233848 63.903423,8.5406926 63.597786,8.495809 63.445194,8.5392291 z M 39.412875,8.6926922 c -0.51937,0.029512 -1.037632,0.097216 -1.565324,0.1841557 -2.352282,0.3875422 -3.610139,1.0355346 -4.542507,2.3633311 -0.617192,0.879096 -0.70593,1.152295 -0.70593,2.117791 0,1.02534 0.04582,1.149033 0.767315,1.933635 l 0.767316,0.828701 -1.16632,0 -1.197012,0 -2.271254,-2.271254 -2.271253,-2.271254 -1.473246,0.798008 c -0.807437,0.43616 -1.519162,0.81333 -1.565323,0.859394 -0.04655,0.04607 1.356515,1.534247 3.099954,3.28411 l 3.161339,3.161339 3.591037,0 3.621729,0 0,-1.657401 c 0,-1.653934 -0.01473,-1.707295 -0.552468,-2.025713 -1.408226,-0.833827 -1.199418,-2.820008 0.368312,-3.621729 1.129095,-0.577306 3.927918,-0.55121 5.309823,0.06139 1.148149,0.508976 1.41186,0.902362 1.41186,1.964327 0,0.803037 -0.516373,1.613862 -1.135627,1.810864 -0.330989,0.105426 -0.368311,0.307644 -0.368311,1.810865 l 0,1.657401 3.591036,0 3.560344,0 3.222724,-3.130647 c 1.762984,-1.720996 3.203819,-3.164384 3.192033,-3.222725 -0.01169,-0.05839 -0.692377,-0.454928 -1.503939,-0.890085 l -1.473245,-0.798009 -2.332639,2.332639 -2.363332,2.332639 -1.074241,0 c -0.590281,0 -1.074242,-0.03619 -1.074242,-0.09208 0,-0.05588 0.185187,-0.293991 0.399004,-0.521774 0.98128,-1.045238 1.177025,-2.718511 0.491082,-4.082118 -0.986068,-1.96007 -4.283102,-3.1223804 -7.918695,-2.9157988 z m 25.075868,0.8287007 0.613852,0.6752371 c 0.865385,0.946502 0.852469,1.631335 -0.09208,2.57818 -0.841813,0.843738 -1.463768,0.924845 -2.424717,0.337619 l -0.644545,-0.368311 0.521774,-0.70593 c 0.285024,-0.382779 0.845398,-1.093522 1.258398,-1.596017 l 0.767315,-0.9207781 z m -50.42797,2.1177901 c -0.466724,7.08e-4 -1.035545,0.119009 -1.319783,0.306927 -0.794276,0.525064 -2.079142,2.062652 -1.841557,2.209868 0.114128,0.0707 0.321168,0.04738 0.429697,-0.06138 0.138289,-0.138652 0.598481,0.163677 1.565323,1.043549 1.072229,0.97573 1.360788,1.350956 1.28909,1.657401 -0.05107,0.216774 -0.04493,0.476644 0.03069,0.552467 0.07533,0.07586 0.635951,-0.382219 1.227705,-1.012856 1.019878,-1.086921 1.074241,-1.210193 1.074241,-2.117791 0,-0.880411 -0.07715,-1.026793 -0.8287,-1.780171 -0.717078,-0.718797 -0.907471,-0.798991 -1.626709,-0.798009 z m -0.122771,0.552468 c 0.404725,0.01959 0.821875,0.268273 1.28909,0.736622 0.873439,0.875501 0.929815,1.476693 0.245541,2.486102 -0.260961,0.384979 -0.500167,0.708877 -0.521774,0.705931 -0.022,-0.0029 -0.692769,-0.602479 -1.503939,-1.350476 l -1.473245,-1.381167 0.675237,-0.58316 c 0.480082,-0.422483 0.884365,-0.63345 1.28909,-0.613852 z m 54.17247,0.337618 c -0.12994,0.13 -0.141235,0.289876 0,0.46039 0.162744,0.19654 -0.07337,0.494166 -1.16632,1.442553 -1.466272,1.272285 -1.780171,1.468678 -1.780171,1.135626 0,-0.11174 -0.08132,-0.184155 -0.184156,-0.184155 -0.454644,0 -0.09242,0.669246 0.982164,1.872249 l 1.135626,1.319783 0.521775,-0.521775 c 0.57486,-0.552064 0.469523,-1.003849 -0.153463,-0.613852 -0.326962,0.204673 -0.445559,0.162892 -0.951471,-0.399004 l -0.58316,-0.644545 0.644545,-0.644545 c 0.542645,-0.549432 0.666791,-0.579584 0.920779,-0.368311 0.270193,0.224729 0.259143,0.26211 -0.03069,0.58316 -0.615326,0.681454 0.0048,0.705478 0.736623,0.03069 0.708926,-0.65362 0.796584,-1.09472 0.153463,-0.890086 -0.600593,0.190923 -0.637424,-0.312681 -0.06139,-0.890086 l 0.552467,-0.552467 0.521774,0.675238 c 0.422723,0.555541 0.467068,0.720937 0.276234,0.951471 -0.414572,0.500687 0.05166,0.666015 0.613852,0.214848 L 70.78073,15.107449 69.553025,13.726281 C 68.703257,12.794228 68.240117,12.39928 68.110472,12.529269 z m -9.883023,2.025713 -3.713807,3.683114 -3.683114,3.713807 -4.051425,0 -4.082118,0 0,7.581076 0,7.611769 7.765232,0 7.765232,0 0,-3.99004 0,-3.99004 3.652422,-3.652422 3.652421,-3.652421 -0.951471,-1.28909 c -0.52094,-0.696275 -1.04679,-1.258397 -1.16632,-1.258397 -0.119627,0 -2.139152,1.920385 -4.481122,4.266274 l -4.235581,4.266273 0,2.946492 0,2.977184 -4.327659,0 -4.296966,0 0,-4.235582 0,-4.204888 3.222724,0 3.253418,0 4.266274,-4.296967 4.266273,-4.266273 -0.70593,-0.613853 c -0.375481,-0.330518 -1.001414,-0.832619 -1.41186,-1.104934 l -0.736623,-0.491082 z m -36.033133,0.03069 -1.104934,0.890086 c -0.607173,0.487988 -1.189204,0.952698 -1.28909,1.043549 -0.111672,0.101546 1.471773,1.831922 4.112811,4.481122 l 4.296966,4.327659 3.03857,0 3.038569,0 0,4.204888 0,4.235582 -4.204889,0 -4.204889,0 0,-3.069262 0,-3.038569 -4.266273,-4.266274 c -2.3403,-2.347548 -4.29844,-4.266274 -4.358352,-4.266274 -0.14811,0 -2.056405,2.391873 -2.056405,2.57818 0,0.08213 1.645664,1.796387 3.652421,3.805884 l 3.652422,3.652422 0,3.99004 0,3.99004 7.581076,0 7.581077,0 0,-7.611769 0,-7.581076 -4.082119,0 -4.051425,0 -3.683114,-3.683114 -3.652422,-3.683114 z M 9.2420319,16.150998 c -0.1851819,-0.0066 -0.544487,0.304563 -1.0128563,0.920779 -0.5944055,0.782156 -0.6555452,0.944871 -0.3990041,1.043549 0.16795,0.06458 0.3550522,0.02823 0.4296967,-0.09208 0.1821914,-0.295386 2.2712538,3.062927 2.2712538,3.652421 0,0.650193 0.232822,0.55506 0.828701,-0.306926 0.543627,-0.786438 0.524573,-1.164787 -0.06139,-0.798008 -0.288068,0.180374 -0.369686,0.156675 -0.552467,-0.245541 -0.188477,-0.414552 -0.163186,-0.573888 0.276234,-1.166319 0.27805,-0.374961 0.534788,-0.710105 0.552467,-0.736623 0.01729,-0.02652 0.286988,-0.0041 0.613852,0.06139 0.485778,0.09739 0.547851,0.182172 0.368312,0.399004 -0.168245,0.198662 -0.159897,0.30011 0,0.460389 0.117368,0.117683 0.240875,0.198152 0.276233,0.153464 0.505913,-0.636934 1.074242,-1.457306 1.074242,-1.565324 0,-0.07582 -0.238715,-0.08835 -0.521775,-0.03069 -0.30781,0.06275 -1.238557,-0.138445 -2.301946,-0.460389 C 9.5150735,16.965192 9.3127477,16.868587 9.3648024,16.51931 9.4018594,16.268597 9.3531441,16.154941 9.2420319,16.150998 z m 62.5515541,0.859394 c -0.219219,0.08436 -0.231693,0.162675 -0.06139,0.368311 0.120511,0.145174 0.193731,0.27147 0.153463,0.306926 -0.04037,0.03542 -0.826491,0.562191 -1.718787,1.135627 -1.226428,0.788098 -1.641195,0.969572 -1.718786,0.767315 -0.132789,-0.346811 -0.491082,-0.346782 -0.491082,0 0,0.147109 0.401263,0.909101 0.890086,1.688094 0.488823,0.778994 0.931091,1.409896 0.982163,1.411861 0.05147,0.0018 0.344887,-0.189401 0.644545,-0.429697 0.641746,-0.514791 0.530467,-1.072513 -0.12277,-0.613852 -0.369588,0.259438 -0.422674,0.230563 -0.828701,-0.368312 -0.238862,-0.35239 -0.429696,-0.71364 -0.429696,-0.798008 0,-0.0844 0.699546,-0.589092 1.565323,-1.135627 1.39369,-0.879861 1.625972,-0.948426 1.964328,-0.736622 0.638406,0.399505 0.646116,0.03718 0.03069,-0.859394 -0.390705,-0.569242 -0.670818,-0.809204 -0.859393,-0.736622 z M 8.9044131,17.440088 c 0.017974,0.0015 0.5147521,0.152903 1.1049339,0.337619 l 1.074242,0.337619 -0.521775,0.583159 -0.491081,0.58316 -0.6138527,-0.920778 C 9.1302126,17.851212 8.8867342,17.438124 8.9044131,17.440088 z m -1.8108644,3.406881 c -0.3026783,-0.0086 -0.5842892,0.087 -0.9821637,0.276233 -0.4766441,0.226723 -0.7917713,0.644584 -1.3811678,1.780172 -0.6955684,1.340153 -0.7311718,1.473246 -0.399004,1.473246 0.2024239,0 0.3923744,-0.103206 0.4296966,-0.214849 0.04017,-0.120933 0.7749763,0.13822 1.8108644,0.613853 1.4091104,0.647069 1.7300815,0.858234 1.6574014,1.135627 -0.0606,0.232124 -5.402e-4,0.337618 0.2148483,0.337618 0.4648581,0 1.3197825,-1.877406 1.3197825,-2.885106 0,-1.002465 -0.4981043,-1.693299 -1.5653235,-2.179176 C 7.7286158,20.970672 7.396227,20.855579 7.0935487,20.846969 z m -0.1534631,0.736622 c 0.3615546,0.0084 0.78276,0.128977 1.2583973,0.399005 0.9290287,0.527254 1.1676945,1.178233 0.8593933,2.209868 -0.1250294,0.418117 -0.3358509,0.745462 -0.4603892,0.736623 -0.1244402,-0.009 -0.9503417,-0.368675 -1.8415571,-0.798008 L 5.1292212,23.333071 5.4975326,22.657833 c 0.3781945,-0.73491 0.839962,-1.088371 1.442553,-1.074242 z m 67.8920694,2.271254 c -0.182002,-0.0092 -0.357863,-4.99e-4 -0.552467,0.03069 -2.504419,0.40142 -3.240944,3.450449 -1.16632,4.818741 0.308695,0.203622 0.640371,0.338453 0.736623,0.306926 0.375089,-0.122535 0.236063,-0.435816 -0.337619,-0.798008 -1.808163,-1.141451 -0.960065,-3.650457 1.227705,-3.652422 0.962324,-9.72e-4 1.645517,0.620885 1.780172,1.626709 0.08987,0.672055 0.02539,0.863774 -0.399004,1.28909 -0.671898,0.673588 -0.455429,0.866043 0.552467,0.521774 0.78524,-0.268169 1.139114,-0.61287 0.613852,-0.613852 -0.157244,-3.73e-4 -0.245541,-0.320225 -0.245541,-0.982164 0,-1.449496 -0.935853,-2.48317 -2.209868,-2.547487 z m -61.047616,0.184156 c -0.36903,0.0183 -0.570152,0.573894 -1.043549,1.503938 l -0.521774,1.074242 2.332639,2.271253 2.332639,2.301947 0,1.197012 0,1.197012 -0.705931,-0.552467 C 15.792671,32.72292 15.087527,32.359882 14.61324,32.23393 c -1.764555,-0.46861 -3.626885,0.597912 -4.45043,2.516794 -1.1821318,2.75439 -1.4158868,5.283835 -0.7366224,8.041466 0.6961574,2.825852 1.9418364,4.113842 3.9900404,4.143503 1.107684,0.01605 2.044374,-0.290042 2.762335,-0.951471 l 0.521775,-0.491082 0,1.227705 0,1.197012 -2.332639,2.332639 c -1.286438,1.28631 -2.332639,2.452276 -2.332639,2.57818 0,0.125903 0.16741,0.505559 0.399004,0.859393 0.231496,0.353844 0.561307,0.906478 0.736623,1.227705 0.175218,0.321236 0.410544,0.58316 0.491082,0.58316 0.08093,0 1.599945,-1.444439 3.376188,-3.222725 l 3.222725,-3.222725 0,-3.529651 0,-3.529651 -1.780172,0 c -1.592775,0 -1.766471,0.03421 -1.87225,0.368311 -0.374204,1.181779 -2.345161,1.555021 -3.28411,0.613853 -0.946708,-0.948957 -1.203887,-3.034601 -0.644545,-5.187053 0.314096,-1.20864 0.764418,-1.803174 1.596016,-2.148483 0.720712,-0.299216 1.738135,0.04458 2.271254,0.767316 0.391589,0.530938 0.452728,0.521774 2.056405,0.521774 l 1.657402,0 0,-3.40688 0,-3.437574 -3.192033,-3.192032 c -2.033576,-2.031024 -2.809642,-2.877945 -3.28411,-2.854413 z m 52.88338,0.09208 c -0.471494,-0.01146 -1.23318,0.832049 -3.222725,2.823721 l -3.16134,3.130646 0,3.529651 0,3.529651 1.596017,0 1.626708,0 0.70593,-0.767315 c 0.958298,-1.009841 1.80124,-1.055414 2.731643,-0.12277 l 0.644545,0.644544 0,2.45541 c 0,1.344582 -0.0879,2.661104 -0.184155,2.915799 -0.31223,0.823141 -0.939538,1.227704 -1.841557,1.227704 -0.693899,0 -0.922743,-0.09275 -1.473246,-0.644545 -0.644496,-0.646018 -0.663157,-0.644545 -2.209868,-0.644545 l -1.596017,0 0,3.591037 0,3.591036 3.16134,3.192032 3.130647,3.222725 0.429697,-0.675238 c 0.236799,-0.361033 0.614441,-1.031213 0.859393,-1.503938 l 0.460389,-0.859393 -2.332639,-2.332639 -2.332639,-2.332639 0,-1.16632 c 0,-1.166712 0.0045,-1.162734 0.368312,-0.798008 0.597155,0.598541 1.81828,1.106899 2.57818,1.104935 0.958493,-0.0024 2.553674,-0.921142 3.161339,-1.841558 1.214937,-1.840319 1.779435,-4.988232 1.381168,-7.611769 -0.53744,-3.541044 -2.070991,-5.516813 -4.296966,-5.524671 -0.830911,-0.0029 -2.485955,0.748527 -2.885106,1.319783 -0.295534,0.422114 -0.306927,0.388475 -0.306927,-0.859393 l 0,-1.28909 2.332639,-2.363332 2.332639,-2.363331 -0.644545,-1.16632 C 67.209613,24.659548 67.034636,24.13999 66.667919,24.131079 z M 3.5638977,25.972636 c -0.136045,0.03596 -0.2679588,0.237988 -0.399004,0.552467 -0.4768405,1.143847 -0.5262433,1.365296 -0.2455409,1.473245 0.1627445,0.06262 0.3103637,-0.05377 0.3683114,-0.276233 0.09419,-0.360818 0.1201677,-0.347932 1.0128563,0 0.4978589,0.194075 1.3556807,0.4956 1.9029423,0.675238 0.7592126,0.249243 0.9448415,0.389555 0.8593933,0.613852 -0.061876,0.161664 -0.00933,0.376709 0.1227705,0.460389 0.2464249,0.156007 0.5702934,-0.379744 0.8287006,-1.41186 0.095466,-0.381345 0.047635,-0.491082 -0.1841557,-0.491082 -0.1654946,0 -0.3069261,0.143602 -0.3069261,0.306926 0,0.163334 -0.071944,0.249224 -0.1534631,0.214848 -0.081618,-0.03439 -0.9391941,-0.355425 -1.9336349,-0.70593 -1.5795158,-0.55668 -1.7799263,-0.664453 -1.6267087,-0.951471 0.1267973,-0.237576 0.077591,-0.352597 -0.1227705,-0.429697 -0.046874,-0.01802 -0.077422,-0.04268 -0.1227705,-0.03069 z m 72.6494253,3.713806 c -0.134664,-7.6e-4 -0.269948,0.0088 -0.399004,0.03069 -2.445293,0.4141 -3.006403,3.659974 -0.859393,4.972204 1.11338,0.680443 2.744263,0.317573 3.560343,-0.798008 0.475269,-0.650438 0.483765,-2.048067 0.03069,-2.915799 -0.384493,-0.736285 -1.389998,-1.283769 -2.332639,-1.28909 z M 2.18273,29.717135 c -0.1995389,-0.0054 -0.2762336,0.04419 -0.2762336,0.184156 0,0.156694 0.1246366,0.276233 0.2455409,0.276233 0.1208062,0 0.015764,0.214279 -0.2148483,0.46039 -0.5892982,0.628722 -0.479345,1.723294 0.2148483,2.240561 0.7920169,0.590231 1.5531447,0.273797 2.1791759,-0.890086 0.5547261,-1.0314 0.9526988,-1.342913 1.4118604,-1.16632 1.0237092,0.393769 0.3718472,2.587177 -0.6752376,2.271254 -0.213326,-0.06436 -0.3376188,-0.005 -0.3376188,0.184156 0,0.164188 0.2308576,0.334672 0.5217745,0.399004 0.2829614,0.06256 0.5723068,0.14978 0.6752376,0.184155 0.3947316,0.132141 0.5134261,0.07162 0.4603892,-0.245541 -0.030545,-0.180511 0.088935,-0.647982 0.2762336,-1.043549 0.5726997,-1.209298 -0.049452,-2.394024 -1.2583973,-2.394024 -0.7015596,0 -1.2086507,0.490473 -1.5960161,1.473246 -0.3022118,0.76704 -0.8051288,1.074065 -1.3197826,0.798008 -0.5219218,-0.279926 -0.4931444,-1.135195 0.061385,-1.657401 0.2431837,-0.229002 0.5453955,-0.398759 0.6752375,-0.368312 0.3756777,0.08831 0.4356879,-0.388838 0.061385,-0.491082 C 2.7190405,29.776654 2.3822688,29.722527 2.18273,29.717135 z m 74.030593,0.644545 c 0.540325,-0.02003 1.101153,0.148731 1.503938,0.552467 0.718551,0.720231 0.779151,1.997407 0.122771,2.762336 -0.564352,0.657617 -2.043687,0.839268 -2.823721,0.337618 -0.610022,-0.392286 -0.937328,-1.341635 -0.767316,-2.11779 0.199993,-0.912608 1.063786,-1.501257 1.964328,-1.534631 z M 5.8351514,35.241806 c -0.2057633,0 -0.3683114,0.124087 -0.3683114,0.276234 0,0.207079 -0.1338689,0.268032 -0.5524671,0.184155 -0.3561326,-0.0714 -0.7320558,-3.04e-4 -1.0128564,0.184156 -0.4068122,0.267208 -0.4440362,0.250422 -0.7366228,-0.09208 -0.2325764,-0.272344 -0.5036045,-0.349257 -1.0128564,-0.306926 -0.581048,0.04835 -0.7390291,0.156498 -1.0128563,0.70593 -0.42557158,0.853746 -0.47261723,2.823721 -0.061385,2.823721 0.1543962,0 0.2762336,-0.137827 0.2762336,-0.306926 0,-0.260882 0.1486014,-0.315196 0.9821637,-0.214848 0.5402883,0.0651 1.4240393,0.121827 1.9643275,0.12277 0.8570361,0.0014 0.9821638,0.07175 0.9821638,0.399004 0,0.206304 0.134802,0.368311 0.2762336,0.368311 0.2446569,0 0.4910818,-0.775663 0.4910818,-1.53463 0,-0.394261 -0.47301,-0.460095 -0.6138523,-0.09208 -0.060894,0.158835 -0.4032764,0.199625 -0.9821638,0.153463 -0.9552524,-0.07615 -1.0800854,-0.349778 -0.5524671,-1.104934 0.2327728,-0.333052 0.4740414,-0.429697 1.1970121,-0.429697 0.6525496,0 0.9313368,-0.09299 1.0128564,-0.306926 0.2076294,-0.542498 0.1020959,-0.828701 -0.2762336,-0.828701 z m 73.2632776,0.767316 c -0.167754,0 -0.276234,0.153168 -0.276234,0.368311 0,0.352332 -0.128909,0.368292 -2.056405,0.368311 -1.747368,0 -2.024976,-0.0367 -1.933635,-0.276233 0.07474,-0.195186 -0.03329,-0.276234 -0.306926,-0.276234 -0.347981,0 -0.368312,0.122879 -0.368312,0.951471 0,0.812721 0.044,0.920779 0.368312,0.920779 0.24446,0 0.368311,-0.132523 0.368311,-0.368311 0,-0.320903 0.172321,-0.344593 1.503939,-0.399004 0.823544,-0.03349 1.473442,-0.05996 1.473245,-0.03069 -2.95e-4,0.02922 -0.748752,0.431798 -1.688094,0.890086 -1.553292,0.757778 -1.663049,0.853991 -1.258397,1.012856 0.244755,0.09608 1.029062,0.421319 1.749479,0.736623 l 1.28909,0.58316 -1.534631,0 c -1.421093,0.0062 -1.534631,-0.02298 -1.534631,-0.368312 0,-0.208385 -0.120266,-0.368311 -0.276233,-0.368311 -0.215782,0 -0.276234,0.25167 -0.276234,1.043549 0,0.917694 0.02416,1.012856 0.368312,1.012856 0.301426,0 0.368557,-0.07577 0.276233,-0.368311 -0.113636,-0.358991 -0.05048,-0.368312 1.841557,-0.368312 1.632847,0 1.99502,0.04391 1.99502,0.276234 0,0.15473 0.115355,0.276234 0.276234,0.276234 0.216174,0 0.288756,-0.139163 0.245541,-0.58316 -0.0551,-0.564234 -0.150615,-0.66246 -1.688094,-1.28909 -0.898876,-0.366386 -1.626611,-0.685059 -1.626709,-0.736623 -9.8e-5,-0.05157 0.727734,-0.485503 1.626709,-0.951471 1.496916,-0.775909 1.634075,-0.887287 1.688094,-1.442553 0.04351,-0.44987 -0.02848,-0.613852 -0.245541,-0.613852 z M 2.18273,36.070507 c 0.1198562,-8.06e-4 0.253742,0.02573 0.399004,0.09208 0.3797045,0.173558 0.4603892,0.331382 0.4603892,0.951471 0,0.726506 -0.02809,0.770262 -0.6138523,0.767315 C 1.531359,37.877148 1.2980951,37.666592 1.4461071,36.991285 1.5795095,36.382069 1.8231614,36.072923 2.18273,36.070507 z m 2.885106,4.634585 c -0.5187789,0 -0.7059302,0.07464 -0.7059302,0.276234 0,0.171692 0.1564587,0.276233 0.4296966,0.276233 0.5066983,0 0.6752376,0.300817 0.6752376,1.227705 l 0,0.644545 -0.9207785,0 c -0.8107762,0 -0.9514711,-0.04322 -0.9514711,-0.368312 0,-0.250068 0.1188418,-0.368311 0.3683114,-0.368311 0.207924,0 0.399004,-0.150634 0.399004,-0.306926 0,-0.306092 -0.3047163,-0.331824 -1.3811678,-0.153463 -0.443938,0.07355 -0.6752376,0.222705 -0.6752376,0.399004 0,0.186464 0.1180561,0.249764 0.3683114,0.184155 0.2975957,-0.07802 0.3683114,0.0093 0.3683114,0.368312 0,0.399466 -0.09193,0.429697 -0.7366228,0.429697 -0.7898561,0 -0.9514711,-0.192672 -0.9514711,-1.135627 0,-0.422272 0.079653,-0.552467 0.3683114,-0.552467 0.2079241,0 0.399004,-0.119942 0.399004,-0.276234 0,-0.196472 -0.2178439,-0.276234 -0.6752376,-0.276234 -0.61424517,0 -0.64454492,0.04202 -0.64454492,0.613853 6.8751e-4,0.335242 0.0569655,1.175974 0.12277047,1.872249 0.0829929,0.881433 0.19181655,1.258398 0.36831145,1.258398 0.1395654,0 0.2455409,-0.162008 0.2455409,-0.368312 0,-0.26097 0.1368154,-0.392129 0.4296966,-0.399004 0.231496,-0.0056 1.0796926,-0.06634 1.9029423,-0.153463 1.20924,-0.128025 1.536497,-0.119873 1.6574013,0.09208 0.3098727,0.543353 0.4910819,0.244667 0.4910819,-0.798008 -0.00108,-0.593129 -0.028237,-1.393356 -0.092078,-1.780172 -0.1107881,-0.671495 -0.1682447,-0.70593 -0.8593933,-0.70593 z m 17.249251,1.28909 0,4.020733 0,3.99004 -3.744499,3.713807 c -2.058125,2.053694 -3.7445,3.849561 -3.7445,3.959347 0,0.109777 0.516962,0.706137 1.135627,1.319783 l 1.104934,1.104934 4.419737,-4.419737 4.389044,-4.389044 0,-2.854413 0,-2.854414 4.296967,0 4.296966,0 0,4.204889 0,4.235581 -3.222724,0 -3.222725,0 -4.266274,4.266274 -4.266274,4.266274 0.521775,0.491081 c 0.285809,0.266786 0.892295,0.747682 1.350475,1.074242 l 0.8287,0.58316 3.652422,-3.652422 3.683114,-3.652421 4.051425,0 4.082119,0 0,-7.703847 0,-7.703847 -7.673155,0 -7.673154,0 z m 20.379898,0 0,7.795925 0,7.795925 4.082118,0 4.082118,0 3.621729,3.652421 c 2.004792,2.011471 3.746218,3.652421 3.836577,3.652421 0.09075,0 0.690265,-0.445263 1.350475,-0.982163 l 1.197012,-0.982164 -4.358351,-4.358352 -4.358352,-4.358351 -2.946491,0 -2.946492,0 0,-4.419737 0,-4.419737 4.112811,0 4.112811,0 0,3.192032 0,3.16134 4.235581,4.327659 c 2.330183,2.385194 4.336498,4.303596 4.450429,4.266273 0.113931,-0.03727 0.636246,-0.601752 1.16632,-1.258397 l 0.982164,-1.197012 -3.621729,-3.744499 -3.652422,-3.7445 0,-4.174195 0,-4.204889 -7.673154,0 -7.673154,0 z m 31.920322,0.70593 c -0.143924,-0.009 -0.310118,0.08945 -0.368312,0.306926 -0.300051,1.121189 0.04611,2.21478 0.399004,1.258398 0.12886,-0.349061 0.168883,-0.343895 0.58316,-0.03069 0.388053,0.293313 0.420661,0.430099 0.306926,1.28909 -0.115699,0.874352 -0.182289,0.940373 -0.675237,1.012856 -0.41634,0.06124 -0.521775,0.03397 -0.521775,-0.214848 0,-0.177408 -0.134114,-0.37499 -0.276233,-0.429697 -0.246425,-0.09477 -0.481261,0.670799 -0.491082,1.596016 -0.0011,0.180512 0.121837,0.337619 0.276233,0.337619 0.154298,0 0.306926,-0.133692 0.306926,-0.276233 0,-0.180365 0.54132,-0.35466 1.810865,-0.58316 1.003378,-0.1806 1.910603,-0.355298 2.025713,-0.399004 0.115109,-0.04373 0.251925,0.09479 0.306926,0.306926 0.159209,0.610356 0.456559,0.460782 0.58316,-0.306926 0.171682,-1.040053 0.150271,-1.749479 -0.06139,-1.749479 -0.102734,0 -0.184155,0.143602 -0.184155,0.306926 0,0.358951 0.09478,0.399279 -2.025713,-0.828701 -0.948574,-0.549304 -1.718787,-1.122456 -1.718787,-1.258397 0,-0.221134 -0.13231,-0.328564 -0.276233,-0.337619 z m 1.657401,2.179176 c 0.02534,-0.02604 0.498841,0.192494 1.043549,0.491082 l 0.982164,0.521774 -0.58316,0.122771 c -0.321953,0.0627 -0.843973,0.182781 -1.166319,0.245541 l -0.58316,0.09208 0.12277,-0.705931 c 0.07415,-0.398002 0.15862,-0.741288 0.184156,-0.767315 z M 1.4461071,45.95353 c -0.2322817,0 -0.2549206,0.141883 -0.153463,0.70593 0.069635,0.386825 0.1399583,0.751306 0.1841557,0.8287 0.1438869,0.252868 0.4301877,0.151214 0.4910818,-0.184155 0.054903,-0.301701 0.1829771,-0.326 1.9029423,-0.153463 l 1.8722497,0.214848 -1.5960161,0.890086 c -0.8905279,0.489893 -1.6885851,0.890086 -1.7494792,0.890086 -0.061484,0 -0.092078,-0.143602 -0.092078,-0.306926 0,-0.163285 -0.1168775,-0.260618 -0.2455409,-0.214849 -0.2280584,0.08116 -0.2292861,0.558743 -0.030693,1.411861 0.054019,0.232095 0.2048793,0.399004 0.3683114,0.399004 0.1789502,0 0.2757425,-0.08576 0.2148483,-0.245541 -0.07101,-0.185462 0.5285023,-0.616318 2.0257127,-1.442553 C 7.3631527,47.242816 7.427288,47.025434 5.067836,46.720845 4.1159229,46.597957 2.9577063,46.441469 2.5203487,46.383226 2.082893,46.325013 1.7223407,46.198432 1.7223407,46.106993 c 0,-0.09141 -0.1172212,-0.153463 -0.2762336,-0.153463 z m 72.1890359,2.578179 c -0.165289,-0.0089 -0.462231,0.347158 -0.613852,0.890086 -0.25772,0.922537 -0.159848,1.222175 0.276233,0.859394 0.215978,-0.179638 0.40642,-0.200863 0.920779,-0.03069 0.364186,0.120462 0.675237,0.291506 0.675237,0.368311 0,0.122103 -0.573829,1.924177 -0.644545,2.025713 -0.01473,0.02114 -0.359619,-0.07358 -0.767315,-0.214848 -0.584388,-0.202483 -0.721399,-0.336175 -0.675238,-0.644545 0.104601,-0.699045 -0.479148,-0.421083 -0.70593,0.337619 -0.360356,1.205547 -0.241907,1.680983 0.245541,1.012856 0.200853,-0.275458 0.416978,-0.235228 2.056405,0.337619 1.5639,0.546436 1.810079,0.678822 1.810865,1.043549 0.0014,0.670837 0.281193,0.504616 0.613852,-0.368312 0.379214,-0.995059 0.389674,-1.258397 0.03069,-1.258397 -0.154396,0 -0.276234,0.11455 -0.276234,0.276234 0,0.218786 -0.116386,0.281979 -0.429696,0.184155 -0.908502,-0.283668 -1.258398,-0.461646 -1.258398,-0.613852 0,-0.284729 0.602116,-1.902942 0.70593,-1.902942 0.05549,0 0.400232,0.09536 0.798009,0.214848 0.49943,0.149986 0.736622,0.313968 0.736622,0.552467 0,0.504606 0.342481,0.430846 0.552467,-0.12277 0.396598,-1.045661 0.43667,-1.411861 0.122771,-1.411861 -0.165495,0 -0.306926,0.145243 -0.306926,0.306926 0,0.204693 -0.08687,0.263908 -0.337619,0.184156 -3.005323,-0.956146 -3.495521,-1.197385 -3.437573,-1.596016 0.04294,-0.295773 0.0071,-0.424346 -0.09208,-0.429697 z M 7.3390897,49.94357 c -9.83e-5,-0.02249 -0.1026362,0.0064 -0.245541,0.06139 -0.1429048,0.055 -0.2322817,0.246896 -0.1841557,0.429697 0.070716,0.271008 -0.2376836,0.451491 -1.7187866,1.012856 -1.6607406,0.62942 -1.8486777,0.653001 -2.0564053,0.368311 -0.1249312,-0.171299 -0.31773,-0.253496 -0.4296966,-0.184155 -0.1392709,0.08628 -0.079752,0.437642 0.1841557,1.074241 0.369981,0.892335 0.7059302,1.081736 0.7059302,0.399004 0,-0.430236 3.6185368,-1.806101 3.7138066,-1.41186 0.033295,0.138122 0.2317907,0.245541 0.4296967,0.245541 0.3530879,0 0.3358509,-0.01547 -0.030693,-0.982164 C 7.5020306,50.414881 7.3390897,49.96616 7.3390897,49.94357 z m 1.4732456,3.652421 C 8.51215,53.584824 7.8162371,53.848702 6.6331595,54.455385 5.1039305,55.239534 4.6229158,55.431223 4.5767541,55.2227 4.5078062,54.909606 4.2514615,54.861774 4.0856722,55.130622 3.900829,55.430369 4.6831715,56.839204 4.9757581,56.726638 5.1182701,56.671784 5.2041112,56.470794 5.1599138,56.296942 5.1005911,56.063904 5.4674293,55.77116 6.510389,55.192007 7.9442499,54.395826 7.9710629,54.40221 7.2470118,55.406856 7.0239624,55.716316 6.5263,56.51566 6.1420776,57.156335 c -0.6772019,1.129056 -0.6700321,1.165141 -0.3683114,1.626709 0.1711911,0.261913 0.3560343,0.491081 0.4296966,0.491081 0.276872,0 0.3735169,-0.262365 0.1841557,-0.491081 -0.1498782,-0.181072 0.2249155,-0.457669 1.5960161,-1.16632 1.5626226,-0.807633 1.8159226,-0.877357 1.9643275,-0.613852 0.1248329,0.221635 0.2453939,0.244382 0.3990039,0.09208 0.281783,-0.279396 -0.4743358,-1.793706 -0.8287005,-1.657402 -0.135244,0.05221 -0.2332639,0.240002 -0.1841557,0.429697 0.059028,0.226281 -0.00933,0.385254 -0.245541,0.460389 -0.197906,0.06299 -0.8593441,0.415279 -1.442553,0.767316 -0.583307,0.352046 -1.043549,0.619892 -1.043549,0.583159 0,-0.03673 0.5114618,-0.83534 1.1356269,-1.780171 0.624165,-0.944832 1.17565,-1.829172 1.2277047,-1.964328 0.082759,-0.216158 0.026648,-0.33092 -0.1534631,-0.337619 z m 62.8584797,1.350475 c -0.902903,0 -1.841557,1.11618 -1.841557,2.209869 0,0.693024 0.49339,1.127563 2.301947,2.056405 1.035691,0.531881 1.372868,0.805974 1.227704,0.951471 -0.110984,0.111584 -0.130136,0.286861 -0.06139,0.399004 0.185826,0.301417 0.21642,0.267159 0.767316,-0.675237 0.394928,-0.675346 0.435982,-0.894938 0.245541,-1.012857 -0.149584,-0.0927 -0.329074,-0.0266 -0.46039,0.153464 -0.189066,0.259134 -0.363842,0.198681 -1.503938,-0.429697 -2.105759,-1.160603 -2.307054,-1.448839 -1.565323,-2.394024 0.538225,-0.685845 1.098893,-0.627161 2.731642,0.276233 1.046496,0.579074 1.343159,0.805718 1.197013,0.982164 -0.192406,0.232419 -0.07646,0.491082 0.214848,0.491082 0.257818,0 0.947248,-1.53195 0.828701,-1.841557 -0.09812,-0.256237 -0.157048,-0.25883 -0.368312,0.03069 -0.224424,0.307653 -0.35515,0.288471 -1.780172,-0.429697 -0.840143,-0.42344 -1.697031,-0.767316 -1.933635,-0.767316 z M 11.32913,58.905814 c -0.540472,0.03015 -1.223531,0.391137 -2.2098685,1.104934 -1.0882375,0.787499 -1.3394259,0.900782 -1.5039383,0.675238 -0.1089219,-0.149348 -0.2819301,-0.226045 -0.399004,-0.153463 -0.1465388,0.09077 -0.070863,0.407087 0.2762335,0.951471 0.5496189,0.862006 1.052634,1.067023 0.8900859,0.368311 -0.081225,-0.349012 0.1001807,-0.558743 1.043549,-1.227704 1.6850004,-1.194891 1.9521974,-1.318742 2.4247164,-0.890086 1.018701,0.924088 0.853108,1.4862 -0.859393,2.762335 -1.2499015,0.931475 -1.5052149,1.040672 -1.6267086,0.675238 -0.073859,-0.222254 -0.5217745,-0.06502 -0.5217745,0.184156 0,0.07355 0.2625815,0.43885 0.5831597,0.8287 0.5984324,0.727813 0.8188794,0.764654 0.8287004,0.122771 0.0035,-0.231791 0.494569,-0.758859 1.381168,-1.442553 1.664964,-1.283973 1.852557,-1.843777 1.043549,-3.069262 -0.419482,-0.635367 -0.810003,-0.920239 -1.350475,-0.890086 z m 57.517965,0.122771 c -0.155673,-0.05989 -0.630304,0.425394 -1.258398,1.319782 -0.555119,0.790485 -1.046741,1.47796 -1.074241,1.534631 -0.0274,0.05671 0.229924,0.313389 0.552467,0.552467 0.461028,0.341656 0.6167,0.378673 0.736623,0.184156 0.09782,-0.158669 0.01527,-0.329546 -0.214849,-0.491082 -0.349257,-0.245197 -0.353677,-0.291094 0.122771,-1.012856 0.269309,-0.407913 0.519073,-0.736623 0.552467,-0.736623 0.07828,0 1.407195,0.904671 1.442553,0.982163 0.01493,0.03247 -0.07013,0.225535 -0.184156,0.429697 -0.198888,0.356231 -0.231447,0.34969 -0.583159,0.03069 -0.303686,-0.275566 -0.374941,-0.283374 -0.46039,-0.06139 -0.128467,0.335616 1.475308,1.553666 1.657402,1.258398 0.06728,-0.109079 0.0016,-0.34087 -0.122771,-0.491082 -0.179736,-0.21364 -0.179048,-0.336214 0,-0.552467 0.198103,-0.239353 0.315668,-0.200853 0.859393,0.214848 l 0.644545,0.491082 -0.491082,0.736623 c -0.460536,0.697562 -0.504783,0.72354 -0.8287,0.429696 -0.319302,-0.289708 -0.347735,-0.294275 -0.460389,0 -0.07553,0.197298 -0.0043,0.416791 0.214848,0.58316 0.538127,0.408462 0.767021,0.332885 1.319782,-0.429696 0.280506,-0.386816 0.755972,-1.004341 1.043549,-1.381168 0.436179,-0.571394 0.462207,-0.740532 0.245541,-0.920779 -0.201834,-0.167881 -0.290524,-0.12665 -0.429696,0.122771 -0.157834,0.282578 -0.391245,0.167881 -1.810865,-0.859394 -1.380627,-0.998732 -1.56881,-1.209878 -1.41186,-1.503938 0.13269,-0.248664 0.119627,-0.360061 -0.06139,-0.429696 z m -25.965955,0.552467 0,1.626708 c 0,1.618459 0.0099,1.598708 0.675238,2.209869 0.747721,0.686729 1.0325,1.851526 0.644545,2.57818 -0.49393,0.924943 -1.213414,1.135627 -3.836577,1.135627 -2.655083,0 -3.260784,-0.175297 -3.928655,-1.197013 -0.576236,-0.881639 0.03865,-2.494263 1.074241,-2.82372 0.301426,-0.09571 0.337619,-0.348227 0.337619,-1.810865 l 0,-1.657401 -3.621729,0 -3.591036,0 -3.253417,3.253417 c -3.690775,3.704143 -3.552781,3.21254 -1.227705,4.389045 l 1.135627,0.583159 2.332639,-2.332639 2.332639,-2.332639 1.104934,0 1.104934,0 -0.368311,0.429697 c -1.374146,1.506138 -1.333337,3.889791 0.09208,5.248438 0.744283,0.709456 2.284856,1.449909 3.713806,1.749479 2.407087,0.504636 6.302005,0.01748 8.194929,-1.012856 1.295769,-0.705322 2.148483,-1.996455 2.148483,-3.253418 0,-1.012955 -0.330842,-1.843187 -1.074241,-2.639565 l -0.491082,-0.521775 1.197012,0 1.227705,0 2.240561,2.240562 c 1.231731,1.23783 2.360827,2.242525 2.516794,2.240561 0.155968,-0.0022 0.843482,-0.316699 1.534631,-0.705931 l 1.258397,-0.70593 -3.222724,-3.222725 -3.222725,-3.222724 -3.498959,-0.122771 -3.529651,-0.12277 z m -28.421363,5.739519 c -0.428434,0.08785 -0.739864,0.717569 -0.368312,1.16632 0.274122,0.331156 0.590134,0.362084 0.890086,0.06139 0.312525,-0.313183 0.290623,-0.812122 -0.06138,-1.104934 -0.145827,-0.12131 -0.317578,-0.152054 -0.460389,-0.122771 z m 51.103208,0.153463 c -0.455537,0.114854 -0.771809,0.746774 -0.399004,1.197012 0.123949,0.14977 0.371847,0.276234 0.552467,0.276234 0.74448,0 0.985355,-0.972234 0.337618,-1.381168 -0.162081,-0.10231 -0.339236,-0.130363 -0.491081,-0.09208 z m -33.17872,7.73454 c -0.105055,0.02436 -0.153463,0.09861 -0.153463,0.214848 0,0.16357 0.159798,0.276234 0.368312,0.276234 0.410053,0 0.42012,-0.06367 -0.153463,2.455409 -0.308302,1.354178 -0.340762,1.377828 -0.828701,1.319783 -0.853009,-0.101507 -0.626964,0.457531 0.276233,0.675237 1.194508,0.287951 1.657402,0.289788 1.657402,-0.03069 0,-0.156291 -0.19108,-0.276233 -0.399004,-0.276233 -0.467903,0 -0.450077,-0.06158 0.09208,-2.455409 0.245246,-1.083111 0.444429,-1.98294 0.429696,-1.995021 -0.01483,-0.01211 -0.35073,-0.08353 -0.736623,-0.153463 -0.281439,-0.05099 -0.447411,-0.05505 -0.552467,-0.03069 z m 14.30276,0.12277 c -0.738882,0 -1.718787,0.838807 -1.718787,1.473246 0,0.582629 0.470064,0.491592 0.736623,-0.153463 0.423804,-1.025772 1.688094,-0.910829 1.688094,0.153463 0,0.263848 -0.357262,0.995934 -0.767315,1.626709 -0.409955,0.630775 -0.791624,1.407106 -0.859394,1.749479 -0.109805,0.550267 -0.06836,0.613705 0.245541,0.521774 0.195255,-0.05723 0.733922,-0.191492 1.197012,-0.306926 1.50664,-0.374911 1.473246,-0.371425 1.473246,-0.951471 0,-0.430954 -0.06522,-0.552467 -0.368311,-0.552467 -0.29023,0 -0.354807,0.08832 -0.276234,0.337619 0.08525,0.269083 -0.07077,0.382503 -0.70593,0.552467 -0.43667,0.116828 -0.804147,0.177919 -0.828701,0.153463 -0.02436,-0.02443 0.337275,-0.638917 0.798008,-1.381168 0.460832,-0.742241 0.828701,-1.565245 0.828701,-1.841557 0,-0.729659 -0.670474,-1.381168 -1.442553,-1.381168 z m -9.085015,0.368312 c -0.875964,-0.125208 -1.902942,0.71983 -1.902942,1.902942 0,0.96253 0.54844,1.473246 1.596016,1.473246 0.835036,0 0.974405,0.343943 0.368312,0.951471 -0.512101,0.513318 -1.042567,0.469965 -1.473246,-0.122771 -0.200165,-0.275389 -0.437063,-0.439813 -0.552467,-0.368311 -0.296221,0.183547 0.07567,0.950695 0.58316,1.197012 1.170346,0.568034 2.193417,-0.192995 2.547487,-1.902942 0.2533,-1.222657 0.138141,-1.955056 -0.399004,-2.639566 -0.218286,-0.27816 -0.475327,-0.449345 -0.767316,-0.491081 z m 2.854414,0.184155 0,0.767316 c 0,0.54181 0.07352,0.736623 0.276233,0.736623 0.174629,0 0.306926,-0.168638 0.306926,-0.46039 0,-0.430669 0.05535,-0.460389 0.828701,-0.460389 0.46309,0 0.828701,0.06301 0.828701,0.153463 0,0.09044 -0.265381,0.966764 -0.613853,1.933635 -0.402392,1.116524 -0.759654,1.772364 -0.951471,1.810864 -0.166084,0.03336 -0.306926,0.190462 -0.306926,0.337619 0,0.196079 0.266019,0.245541 0.951471,0.245541 0.706863,0 0.920779,-0.06367 0.920779,-0.276233 0,-0.15473 -0.121838,-0.276234 -0.276234,-0.276234 -0.154298,0 -0.276233,-0.05053 -0.276233,-0.09208 0,-0.07496 1.168873,-3.451196 1.41186,-4.082118 0.114324,-0.296987 -0.01611,-0.337619 -1.473246,-0.337619 l -1.626708,0 z m -3.099955,0.368312 c 0.533806,0 0.887631,0.608715 0.828701,1.41186 -0.05372,0.736593 -0.08196,0.775959 -0.70593,0.828701 -0.778954,0.06588 -1.135627,-0.235012 -1.135627,-0.951471 0,-0.55837 0.568231,-1.28909 1.012856,-1.28909 z"
     id="path2987"
     inkscape:connector-curvature="0" />
</svg>
